<svg xmlns="http://www.w3.org/2000/svg" width="512" height="512" viewBox="0 0 512 512" fill="none">
<g clip-path="url(#clip0_32_2)">
<rect x="-3" width="512" height="512" rx="100" fill="url(#paint0_linear_32_2)"/>
<path d="M438.519 447H192.241C177.974 447 164.786 439.401 157.633 427.057L50.4024 242.028C42.6753 228.695 52.296 212 67.7065 212H359.775C375.188 212 384.808 228.699 377.077 242.033L346.903 294.069C343.325 300.239 336.733 304.037 329.601 304.037H218.196C206.568 304.037 199.362 316.693 205.296 326.692L219.898 351.294C221.7 354.33 224.968 356.191 228.497 356.191H397.854C412.202 356.191 425.45 363.875 432.575 376.329L455.879 417.069C463.506 430.403 453.879 447 438.519 447Z" fill="white"/>
<path d="M158.602 85.0356C165.742 72.6395 178.958 65 193.264 65H444.4C459.787 65 469.411 81.6489 461.731 94.9822L436.398 138.964C429.258 151.361 416.042 159 401.736 159H150.6C135.213 159 125.589 142.351 133.269 129.018L158.602 85.0356Z" fill="white"/>
</g>
<defs>
<linearGradient id="paint0_linear_32_2" x1="253" y1="0" x2="253" y2="512" gradientUnits="userSpaceOnUse">
<stop stop-color="#0D1117"/>
<stop offset="1"/>
</linearGradient>
<clipPath id="clip0_32_2">
<rect width="512" height="512" fill="white"/>
</clipPath>
</defs>
</svg>